<svg width="40" height="40" viewBox="0 0 40 40" fill="none" xmlns="http://www.w3.org/2000/svg">
<g clip-path="url(#clip0_308_51)" filter="url(#filter0_d_308_51)">
<path fill-rule="evenodd" clip-rule="evenodd" d="M4 16C4 7.16347 11.1635 0 20 0C28.8365 0 36 7.16347 36 16C36 24.8365 28.8365 32 20 32C11.1635 32 4 24.8365 4 16ZM20.0008 7.46667C17.6833 7.46667 17.3924 7.4768 16.4822 7.5182C15.5737 7.5598 14.9537 7.70367 14.4111 7.91467C13.8498 8.1326 13.3737 8.4242 12.8994 8.89867C12.4247 9.373 12.1331 9.84907 11.9145 10.4101C11.7029 10.9529 11.5589 11.5732 11.5181 12.4813C11.4773 13.3915 11.4667 13.6825 11.4667 16.0001C11.4667 18.3176 11.477 18.6076 11.5182 19.5178C11.56 20.4263 11.7038 21.0463 11.9147 21.5889C12.1328 22.1502 12.4243 22.6263 12.8989 23.1006C13.373 23.5753 13.8491 23.8675 14.41 24.0855C14.9529 24.2965 15.5732 24.4403 16.4815 24.4819C17.3917 24.5234 17.6824 24.5335 19.9997 24.5335C22.3175 24.5335 22.6074 24.5234 23.5177 24.4819C24.4261 24.4403 25.0469 24.2965 25.5899 24.0855C26.1509 23.8675 26.6263 23.5753 27.1004 23.1006C27.5751 22.6263 27.8667 22.1502 28.0853 21.5891C28.2951 21.0463 28.4391 20.4261 28.4818 19.518C28.5227 18.6077 28.5333 18.3176 28.5333 16.0001C28.5333 13.6825 28.5227 13.3917 28.4818 12.4815C28.4391 11.573 28.2951 10.9529 28.0853 10.4103C27.8667 9.84907 27.5751 9.373 27.1004 8.89867C26.6257 8.424 26.1511 8.13247 25.5893 7.91467C25.0453 7.70367 24.4249 7.5598 23.5164 7.5182C22.6061 7.4768 22.3164 7.46667 19.9981 7.46667H20.0008Z" fill="#FAF4EA"/>
<path fill-rule="evenodd" clip-rule="evenodd" d="M19.2349 9.00506C19.4621 9.00473 19.7157 9.00506 20.0005 9.00506C22.2789 9.00506 22.5489 9.01326 23.4487 9.05413C24.2807 9.0922 24.7323 9.2312 25.0331 9.348C25.4313 9.50266 25.7152 9.68753 26.0137 9.9862C26.3123 10.2849 26.4973 10.5693 26.6523 10.9676C26.7691 11.268 26.9083 11.7196 26.9461 12.5516C26.987 13.4511 26.9959 13.7214 26.9959 15.9987C26.9959 18.2761 26.987 18.5463 26.9461 19.4459C26.9081 20.2779 26.7691 20.7295 26.6523 21.0299C26.4976 21.4281 26.3123 21.7117 26.0137 22.0102C25.715 22.3089 25.4315 22.4937 25.0331 22.6484C24.7326 22.7657 24.2807 22.9044 23.4487 22.9425C22.5491 22.9833 22.2789 22.9922 20.0005 22.9922C17.7219 22.9922 17.4518 22.9833 16.5523 22.9425C15.7203 22.9041 15.2687 22.765 14.9677 22.6482C14.5695 22.4935 14.285 22.3087 13.9863 22.01C13.6877 21.7113 13.5028 21.4276 13.3478 21.0292C13.231 20.7287 13.0918 20.2772 13.0539 19.4452C13.013 18.5456 13.0049 18.2754 13.0049 15.9966C13.0049 13.7178 13.013 13.449 13.0539 12.5495C13.0919 11.7175 13.231 11.2659 13.3478 10.9651C13.5025 10.5669 13.6877 10.2824 13.9863 9.98373C14.285 9.68506 14.5695 9.5002 14.9677 9.34513C15.2685 9.2278 15.7203 9.08913 16.5523 9.05093C17.3395 9.0154 17.6445 9.00473 19.2349 9.00293V9.00506ZM24.5555 10.4219C23.9902 10.4219 23.5315 10.8801 23.5315 11.4456C23.5315 12.0109 23.9902 12.4696 24.5555 12.4696C25.1209 12.4696 25.5795 12.0109 25.5795 11.4456C25.5795 10.8803 25.1209 10.4219 24.5555 10.4219ZM20.0005 11.6184C17.5803 11.6184 15.6182 13.5806 15.6182 16.0007C15.6182 18.4208 17.5803 20.3821 20.0005 20.3821C22.4206 20.3821 24.382 18.4208 24.382 16.0007C24.382 13.5806 22.4206 11.6184 20.0005 11.6184Z" fill="#FAF4EA"/>
<path fill-rule="evenodd" clip-rule="evenodd" d="M20.0007 13.1553C21.5716 13.1553 22.8452 14.4287 22.8452 15.9997C22.8452 17.5706 21.5716 18.8442 20.0007 18.8442C18.4296 18.8442 17.1562 17.5706 17.1562 15.9997C17.1562 14.4287 18.4296 13.1553 20.0007 13.1553Z" fill="#FAF4EA"/>
</g>
<defs>
<filter id="filter0_d_308_51" x="0" y="0" width="40" height="40" filterUnits="userSpaceOnUse" color-interpolation-filters="sRGB">
<feFlood flood-opacity="0" result="BackgroundImageFix"/>
<feColorMatrix in="SourceAlpha" type="matrix" values="0 0 0 0 0 0 0 0 0 0 0 0 0 0 0 0 0 0 127 0" result="hardAlpha"/>
<feOffset dy="4"/>
<feGaussianBlur stdDeviation="2"/>
<feComposite in2="hardAlpha" operator="out"/>
<feColorMatrix type="matrix" values="0 0 0 0 0 0 0 0 0 0 0 0 0 0 0 0 0 0 0.25 0"/>
<feBlend mode="normal" in2="BackgroundImageFix" result="effect1_dropShadow_308_51"/>
<feBlend mode="normal" in="SourceGraphic" in2="effect1_dropShadow_308_51" result="shape"/>
</filter>
<clipPath id="clip0_308_51">
<rect width="32" height="32" fill="white" transform="translate(4)"/>
</clipPath>
</defs>
</svg>
